# AST/ASF file generated using VICON BodyLanguage
# -----------------------------------------------
:version 1.10
:name VICON
:units
  mass 1.0
  length 0.45
  angle deg
:documentation
   .ast/.asf automatically generated from VICON data using
   VICON BodyBuilder and BodyLanguage model FoxedUp or BRILLIANT.MOD
:root
   order TX TY TZ RX RY RZ
   axis XYZ
   position 0 0 0  
   orientation 0 0 0 
:bonedata
  begin
     id 1 
     name lhipjoint
     direction 0.707368 -0.647095 0.284426 
     length 2.60678 
     axis 0 0 0  XYZ
  end
  begin
     id 2 
     name lfemur
     direction 0.34202 -0.939693 0  
     length 6.63812  
     axis 0 0 20  XYZ
    dof rx ry rz
    limits (-160.0 20.0)
           (-70.0 70.0)
           (-60.0 70.0)
  end
  begin
     id 3 
     name ltibia
     direction 0.34202 -0.939693 0   
     length 7.51178   
     axis 0 0 20   XYZ
    dof rx
    limits (-10.0 170.0)
  end
  begin
     id 4 
     name lfoot
     direction 0.121251 -0.333133 0.935051   
     length 1.83716   
     axis -90 7.62852e-016 20   XYZ
    dof rx rz
    limits (-45.0 90.0)
           (-70.0 20.0)
  end
  begin
     id 5 
     name ltoes
     direction 1.53611e-011 -4.21962e-011 1   
     length 0.916133   
     axis -90 7.62852e-016 20   XYZ
    dof rx
    limits (-90.0 20.0)
  end
  begin
     id 6 
     name rhipjoint
     direction -0.692419 -0.660507 0.290321   
     length 2.55385  
     axis 0 0 0  XYZ 
  end
  begin
     id 7 
     name rfemur
     direction -0.34202 -0.939693 0   
     length 7.29079   
     axis 0 0 -20   XYZ
    dof rx ry rz
    limits (-160.0 20.0)
           (-70.0 70.0)
           (-70.0 60.0)
  end
  begin
     id 8 
     name rtibia
     direction -0.34202 -0.939693 0   
     length 7.47143   
     axis 0 0 -20   XYZ
    dof rx
    limits (-10.0 170.0)
 end
 begin
     id 9 
     name rfoot
     direction -0.119907 -0.329441 0.936532   
     length 1.79439  
     axis -90 -7.62852e-016 -20   XYZ
    dof rx rz
    limits (-45.0 90.0)
           (-20.0 70.0)
  end
  begin
     id 10 
     name rtoes
     direction -1.53571e-011 -4.21961e-011 1   
     length 0.896039   
     axis -90 -7.62852e-016 -20   XYZ
    dof rx
    limits (-90.0 20.0)
  end
  begin
     id 11 
     name lowerback
     direction 0.0367721 0.992912 -0.113016   
     length 1.73542   
     axis 0 0 0   XYZ
    dof rx ry rz
    limits (-20.0 45.0)
           (-30.0 30.0)
           (-30.0 30.0)
  end
  begin
     id 12 
     name upperback
     direction -0.000314626 0.990678 0.136227   
     length 1.7514   
     axis 0 0 0   XYZ
    dof rx ry rz
    limits (-20.0 45.0)
           (-30.0 30.0)
           (-30.0 30.0)
  end
  begin
     id 13 
     name thorax
     direction -0.0226159 0.981151 0.191917   
     length 1.71471   
     axis 0 0 0   XYZ
    dof rx ry rz
    limits (-20.0 45.0)
           (-30.0 30.0)
           (-30.0 30.0)
  end
  begin
     id 14 
     name lowerneck
     direction 0.0219333 0.998071 0.0580739   
     length 1.65882   
     axis 0 0 0   XYZ
    dof rx ry rz
    limits (-20.0 45.0)
           (-30.0 30.0)
           (-30.0 30.0)
  end
  begin
     id 15 
     name upperneck
     direction 0.0384529 0.980058 -0.194957   
     length 1.6612   
     axis 0 0 0   XYZ
    dof rx ry rz
    limits (-20.0 45.0)
           (-30.0 30.0)
           (-30.0 30.0)
  end
  begin
     id 16
     name head
     direction 0.00592123 0.997421 -0.0715234  
     length 1.68077  
     axis 0 0 0   XYZ
    dof rx ry rz
    limits (-20.0 45.0)
           (-30.0 30.0)
           (-30.0 30.0)
  end
  begin
     id 17 
     name lclavicle
     direction 0.904803 0.417826 0.0821728  
     length 3.42227  
     axis 0 0 0   XYZ
    dof ry rz
    limits (-20.0 10.0)
           (0.0 20.0)
  end
  begin
     id 18 
     name lhumerus
     direction 1 -4.48965e-011 -2.68786e-027   
     length 5.11878   
     axis -180 -30 -90   XYZ
    dof rx ry rz
    limits (-60.0 90.0)
           (-90.0 90.0)
           (-90.0 90.0)
  end
  begin
     id 19
     name lradius
     direction 1 -4.48965e-011 2.61168e-028   
     length 3.59971   
     axis -180 -30 -90   XYZ
    dof rx
    limits (-10.0 170.0)
  end
  begin
     id 20
     name lwrist
     direction 1 -4.48965e-011 1.58672e-027   
     length 1.79985   
     axis -1.65735e-015 90 90   XYZ
    dof ry
    limits (-180.0 0.0)
 end
  begin
     id 21 
     name lhand
     direction 1 -4.48942e-011 3.17344e-027   
     length 0.62877   
     axis -2.02492e-015 90 90   XYZ
    dof rx rz
    limits (-90.0 90.0)
           (-45.0 45.0)
  end
  begin
     id 22 
     name lfingers
     direction 1 -4.49011e-011 6.34687e-027   
     length 0.506931   
     axis -4.04985e-015 90 90   XYZ
    dof rx
    limits (0.0 90.0)
  end
  begin
     id 23
     name lthumb
     direction 0.707107 -6.34982e-011 0.707107   
     length 0.727854   
     axis -90 45 2.85299e-015   XYZ
    dof rx rz
    limits (-45.0 45.0)
           (-45.0 45.0)
  end
  begin
     id 24 
     name rclavicle
     direction -0.945647 0.32488 0.0143075   
     length 3.52737  
     axis 0 0 0   XYZ 
    dof ry rz
    limits (-10.0 20.0)
           (-20.0 0.0)
  end
  begin
     id 25 
     name rhumerus
     direction -1 -4.48962e-011 1.92182e-027  
     length 5.4902   
     axis -180 30 90   XYZ
    dof rx ry rz
    limits (-90.0 60.0)
           (-90.0 90.0)
           (-90.0 90.0)
  end
  begin
     id 26 
     name rradius
     direction -1 -4.48967e-011 -5.97193e-028   
     length 3.20659   
     axis -180 30 90   XYZ
    dof rx
    limits (-10.0 170.0)
  end
  begin
     id 27 
     name rwrist
     direction -1 -4.48964e-011 1.58672e-027   
     length 1.6033   
     axis -1.65735e-015 -90 -90   XYZ
    dof ry
    limits (-180.0 0.0)
  end
  begin
     id 28
     name rhand
     direction -1 -4.49006e-011 3.17344e-027   
     length 0.691885   
     axis -2.02492e-015 -90 -90   XYZ
    dof rx rz
    limits (-90.0 90.0)
           (-45.0 45.0)
  end
  begin
     id 29
     name rfingers
     direction -1 -4.48908e-011 6.34687e-027   
     length 0.557815   
     axis -4.04985e-015 -90 -90   XYZ
    dof rx
    limits (0.0 90.0)
  end
  begin
     id 30
     name rthumb
     direction -0.707107 -6.34999e-011 0.707107   
     length 0.800915   
     axis -90 -45 -2.85299e-015   XYZ
    dof rx rz
    limits (-45.0 45.0)
           (-45.0 45.0)
  end
:hierarchy
  begin
    root lhipjoint rhipjoint lowerback
    lhipjoint lfemur
    lfemur ltibia
    ltibia lfoot
    lfoot ltoes
    rhipjoint rfemur
    rfemur rtibia
    rtibia rfoot
    rfoot rtoes
    lowerback upperback
    upperback thorax
    thorax lowerneck lclavicle rclavicle
    lowerneck upperneck
    upperneck head
    lclavicle lhumerus
    lhumerus lradius
    lradius lwrist
    lwrist lhand lthumb
    lhand lfingers
    rclavicle rhumerus
    rhumerus rradius
    rradius rwrist
    rwrist rhand rthumb
    rhand rfingers
  end

#!OML:ASF I:\Actors\actors\Patient Classification 1\Patient 1\Session 1\Subject1.ASF
:FULLY-SPECIFIED
:DEGREES
136
root -0.592437 17.5943 8.44966 8.39393 37.6222 -6.27759
lowerback 4.84506 6.27779 11.6466
upperback -11.9484 10.345 0.129322
thorax -14.1232 3.72742 -7.84154
lowerneck -2.70792 -18.4995 -17.0422
upperneck 15.887 -27.0204 15.8233
head 10.0041 -12.7493 4.47088
rclavicle 3.84648e-014 -1.98785e-015
rhumerus -35.8613 -29.5 -46.1459
rradius 51.0236
rwrist -17.7538
rhand 1.27628 -32.0316
rfingers 7.12502
rthumb 26.8122 -60.1509
lclavicle 3.84648e-014 -1.98785e-015
lhumerus -63.6646 40.3029 -7.02945
lradius 74.756
lwrist 62.8631
lhand -29.5958 -6.22103
lfingers 7.12502
lthumb -2.92714 23.7386
rfemur 5.90184 27.8209 33.2602
rtibia -2.42386
rfoot -48.2465 -50.782
rtoes 37.9508
lfemur -13.7531 -33.2043 -4.17227
ltibia 1.7046
lfoot -5.3363 5.06231
ltoes -25.4283
137
root -0.579199 17.5906 8.47297 8.40713 37.3721 -6.12789
lowerback 4.5512 6.14296 11.3677
upperback -11.9824 10.088 0.148015
thorax -14.0723 3.64361 -7.60739
lowerneck -2.86615 -18.3723 -16.8688
upperneck 16.4643 -26.8396 15.432
head 10.1153 -12.6576 4.34495
rclavicle -2.15681e-014 -6.75868e-015
rhumerus -39.5506 -25.2863 -47.8166
rradius 53.1297
rwrist -18.5704
rhand 3.52916 -31.7212
rfingers 7.12502
rthumb 28.9661 -59.4908
lclavicle -2.15681e-014 -6.75868e-015
lhumerus -61.9413 40.0115 -7.86557
lradius 79.5081
lwrist 63.7113
lhand -28.4614 -8.17291
lfingers 7.12502
lthumb -1.83157 21.799
rfemur 6.09688 27.7976 33.2011
rtibia -2.41402
rfoot -47.9653 -50.7319
rtoes 37.7143
lfemur -13.3798 -33.1971 -4.48864
ltibia 1.62977
lfoot -5.45219 5.2033
ltoes -25.1776
138
root -0.567587 17.5879 8.49366 8.41065 37.0201 -5.99273
lowerback 4.29571 6.02599 11.0717
upperback -12.0089 9.8612 0.181547
thorax -14.0329 3.57552 -7.35643
lowerneck -3.02588 -18.2466 -16.6907
upperneck 17.0007 -26.6526 15.0398
head 10.2125 -12.5654 4.21902
rclavicle -1.59028e-015 1.59028e-015
rhumerus -43.0484 -21.664 -49.7464
rradius 54.8204
rwrist -18.8428
rhand 6.03762 -31.481
rfingers 7.12502
rthumb 31.3592 -58.8134
lclavicle -1.59028e-015 1.59028e-015
lhumerus -59.8234 39.6137 -8.56659
lradius 84.4283
lwrist 64.0014
lhand -26.9229 -10.1832
lfingers 7.12502
lthumb -0.345667 19.7963
rfemur 6.268 27.7888 33.1287
rtibia -2.38678
rfoot -47.6075 -50.6364
rtoes 37.4636
lfemur -12.9962 -33.1668 -4.79683
ltibia 1.5784
lfoot -5.57182 5.41287
ltoes -24.9273
139
root -0.557365 17.5857 8.51209 8.41331 36.5741 -5.86507
lowerback 4.06052 5.92531 10.7389
upperback -12.0254 9.65813 0.238897
thorax -13.9961 3.52415 -7.06462
lowerneck -3.1819 -18.118 -16.5082
upperneck 17.4793 -26.452 14.6522
head 10.2879 -12.4697 4.09712
rclavicle -9.93923e-016 3.02153e-014
rhumerus -46.3358 -18.7093 -51.796
rradius 56.0579
rwrist -18.5167
rhand 8.58871 -31.1019
rfingers 7.12502
rthumb 33.7866 -57.9328
lclavicle -9.93923e-016 3.02153e-014
lhumerus -57.2994 39.0577 -9.13887
lradius 89.6071
lwrist 63.7355
lhand -24.9037 -12.0252
lfingers 7.12502
lthumb 1.60462 17.9485
rfemur 6.42087 27.8139 33.0442
rtibia -2.34983
rfoot -47.1871 -50.5239
rtoes 37.1824
lfemur -12.6083 -33.1283 -5.10108
ltibia 1.55209
lfoot -5.69835 5.69793
ltoes -24.6889
140
root -0.548037 17.5838 8.52873 8.40903 36.0463 -5.74206
lowerback 3.83129 5.83592 10.3593
upperback -12.022 9.46876 0.329218
thorax -13.9451 3.48817 -6.71254
lowerneck -3.3223 -17.9813 -16.3339
upperneck 17.8709 -26.2342 14.3008
head 10.3352 -12.3686 3.99322
rclavicle 2.80286e-014 1.78906e-014
rhumerus -49.4092 -16.4462 -53.8404
rradius 56.8833
rwrist -17.6408
rhand 10.9643 -30.4805
rfingers 7.12502
rthumb 36.0404 -56.7871
lclavicle 2.80286e-014 1.78906e-014
lhumerus -54.3889 38.3293 -9.61204
lradius 95.005
lwrist 62.9086
lhand -22.3234 -13.745
lfingers 7.12502
lthumb 4.09648 16.1953
rfemur 6.57439 27.8661 32.9538
rtibia -2.31366
rfoot -46.6892 -50.4066
rtoes 36.8477
lfemur -12.2015 -33.0883 -5.41426
ltibia 1.54452
lfoot -5.83584 6.05419
ltoes -24.4469
141
root -0.539286 17.5818 8.54391 8.38283 35.4489 -5.62927
lowerback 3.6074 5.74725 9.93434
upperback -11.9904 9.27904 0.460387
thorax -13.8731 3.4616 -6.29052
lowerneck -3.44101 -17.8293 -16.1613
upperneck 18.1599 -25.9924 14.0033
head 10.3481 -12.2579 3.91469
rclavicle 1.73937e-014 -1.82882e-014
rhumerus -52.2875 -14.8335 -55.7752
rradius 57.4193
rwrist -16.3668
rhand 12.9729 -29.6175
rfingers 7.12502
rthumb 37.9403 -55.4329
lclavicle 1.73937e-014 -1.82882e-014
lhumerus -51.1515 37.4325 -10.0412
lradius 100.57
lwrist 61.5451
lhand -19.4648 -14.8928
lfingers 7.12502
lthumb 6.85644 14.9762
rfemur 6.7463 27.9216 32.8666
rtibia -2.28633
rfoot -46.0843 -50.2731
rtoes 36.4418
lfemur -11.757 -33.0488 -5.74251
ltibia 1.54682
lfoot -5.98573 6.47451
ltoes -24.1894
142
root -0.531297 17.58 8.55731 8.32625 34.7929 -5.53644
lowerback 3.40714 5.649 9.4701
upperback -11.9368 9.08025 0.639597
thorax -13.8013 3.43786 -5.79658
lowerneck -3.5501 -17.6573 -15.9589
upperneck 18.3723 -25.7167 13.722
head 10.3257 -12.1323 3.84636
rclavicle -1.31595e-013 -5.52621e-014
rhumerus -54.9799 -13.7687 -57.5232
rradius 57.7845
rwrist -14.9372
rhand 14.8365 -28.7459
rfingers 7.12502
rthumb 39.6977 -54.0624
lclavicle -1.31595e-013 -5.52621e-014
lhumerus -47.6241 36.3557 -10.4552
lradius 106.107
lwrist 59.7498
lhand -16.5048 -15.6014
lfingers 7.12502
lthumb 9.71314 14.1546
rfemur 6.92489 27.9304 32.778
rtibia -2.26424
rfoot -45.3071 -50.0971
rtoes 35.9371
lfemur -11.2797 -33.013 -6.07535
ltibia 1.56263
lfoot -6.14907 6.95839
ltoes -23.9197
143
root -0.524442 17.5785 8.56852 8.23999 34.097 -5.46971
lowerback 3.24964 5.53321 8.97224
upperback -11.8769 8.86742 0.871531
thorax -13.7612 3.41161 -5.23212
lowerneck -3.66127 -17.466 -15.6903
upperneck 18.5504 -25.3994 13.383
head 10.2679 -11.9899 3.75996
rclavicle -1.04263e-013 -3.93594e-014
rhumerus -57.489 -13.1295 -59.0241
rradius 58.0707
rwrist -13.6725
rhand 16.4 -27.8711
rfingers 7.12502
rthumb 41.1678 -52.734
lclavicle -1.04263e-013 -3.93594e-014
lhumerus -43.7709 35.0486 -10.8734
lradius 111.422
lwrist 57.7326
lhand -13.7243 -15.7805
lfingers 7.12502
lthumb 12.3949 13.832
rfemur 7.08612 27.8469 32.6771
rtibia -2.23914
rfoot -44.3233 -49.8524
rtoes 35.3243
lfemur -10.7965 -32.9788 -6.39687
ltibia 1.61072
lfoot -6.32857 7.49285
ltoes -23.6548
144
root -0.518963 17.5773 8.57752 8.13087 33.3825 -5.42626
lowerback 3.13272 5.39119 8.43774
upperback -11.8164 8.62921 1.16104
thorax -13.7601 3.37807 -4.58873
lowerneck -3.78123 -17.2587 -15.3161
upperneck 18.715 -25.0304 12.8979
head 10.1643 -11.8303 3.62305
rclavicle -1.6201e-014 1.47101e-014
rhumerus -59.7947 -12.7868 -60.2545
rradius 58.3239
rwrist -12.7661
rhand 17.7253 -27.105
rfingers 7.12502
rthumb 42.4105 -51.556
lclavicle -1.6201e-014 1.47101e-014
lhumerus -39.6036 33.5062 -11.2944
lradius 116.321
lwrist 55.6049
lhand -11.1152 -15.6682
lfingers 7.12502
lthumb 14.9095 13.7752
rfemur 7.21606 27.6566 32.5556
rtibia -2.20639
rfoot -43.1637 -49.5227
rtoes 34.6211
lfemur -10.3257 -32.9382 -6.70101
ltibia 1.69379
lfoot -6.51515 8.05117
ltoes -23.4469
145
root -0.514865 17.5765 8.58418 8.00893 32.6637 -5.39361
lowerback 3.05029 5.20958 7.8593
upperback -11.7504 8.34491 1.50845
thorax -13.7896 3.32936 -3.85782
lowerneck -3.92701 -17.0268 -14.8351
upperneck 18.8765 -24.5982 12.2639
head 10.0225 -11.6469 3.43446
rclavicle 1.13307e-014 1.11319e-014
rhumerus -61.8447 -12.6117 -61.2505
rradius 58.5413
rwrist -12.1912
rhand 18.7811 -26.4189
rfingers 7.12502
rthumb 43.3979 -50.5227
lclavicle 1.13307e-014 1.11319e-014
lhumerus -35.1364 31.7368 -11.7594
lradius 120.672
lwrist 53.4993
lhand -8.63443 -15.4709
lfingers 7.12502
lthumb 17.2983 13.7793
rfemur 7.3048 27.3548 32.3981
rtibia -2.1589
rfoot -41.8748 -49.093
rtoes 33.8506
lfemur -9.86696 -32.8886 -6.99688
ltibia 1.79197
lfoot -6.68745 8.61502
ltoes -23.3418
146
root -0.511991 17.5764 8.58834 7.87303 31.9525 -5.36543
lowerback 3.00413 4.97416 7.24525
upperback -11.673 7.99383 1.90564
thorax -13.8396 3.25515 -3.04836
lowerneck -4.10805 -16.7554 -14.2776
upperneck 19.0419 -24.0993 11.5579
head 9.86471 -11.4326 3.22118
rclavicle 8.15017e-014 6.12257e-014
rhumerus -63.6047 -12.5115 -62.0595
rradius 58.742
rwrist -11.8567
rhand 19.6122 -25.9086
rfingers 7.12502
rthumb 44.1737 -49.7264
lclavicle 8.15017e-014 6.12257e-014
lhumerus -30.4307 29.7568 -12.331
lradius 124.45
lwrist 51.4308
lhand -6.23888 -15.3757
lfingers 7.12502
lthumb 19.6027 13.656
rfemur 7.35589 26.9473 32.2046
rtibia -2.0883
rfoot -40.4989 -48.5683
rtoes 33.0059
lfemur -9.40547 -32.8426 -7.29458
ltibia 1.88272
lfoot -6.83176 9.18491
ltoes -23.3369
147
root -0.510171 17.577 8.59005 7.71382 31.2565 -5.34229
lowerback 2.99298 4.68272 6.61152
upperback -11.5741 7.57138 2.34362
thorax -13.8896 3.15227 -2.17512
lowerneck -4.31137 -16.4477 -13.6713
upperneck 19.1951 -23.5486 10.8328
head 9.69888 -11.1926 3.00081
rclavicle -1.13307e-014 2.8625e-014
rhumerus -65.0686 -12.4384 -62.697
rradius 58.9542
rwrist -11.6506
rhand 20.2865 -25.6417
rfingers 7.12502
rthumb 44.8018 -49.2189
lclavicle -1.13307e-014 2.8625e-014
lhumerus -25.6086 27.6254 -13.0375
lradius 127.748
lwrist 49.3976
lhand -3.98985 -15.3655
lfingers 7.12502
lthumb 21.7637 13.4309
rfemur 7.38421 26.4453 31.9884
rtibia -1.99232
rfoot -39.0629 -47.9701
rtoes 32.0568
lfemur -8.91996 -32.8176 -7.60199
ltibia 1.94901
lfoot -6.94043 9.77001
ltoes -23.4142
148
root -0.509094 17.5786 8.58892 7.5261 30.575 -5.32158
lowerback 3.01266 4.3511 5.97799
upperback -11.4418 7.09677 2.80747
thorax -13.9114 3.02774 -1.26441
lowerneck -4.52409 -16.1189 -13.0581
upperneck 19.3135 -22.9772 10.1466
head 9.53325 -10.9396 2.79182
rclavicle -4.31363e-014 1.43125e-014
rhumerus -66.2367 -12.3867 -63.1544
rradius 59.1698
rwrist -11.4358
rhand 20.8531 -25.5627
rfingers 7.12502
rthumb 45.3289 -48.9315
lclavicle -4.31363e-014 1.43125e-014
lhumerus -20.6697 25.437 -13.8363
lradius 130.534
lwrist 47.3731
lhand -1.99996 -15.3482
lfingers 7.12502
lthumb 23.6734 13.2141
rfemur 7.39726 25.8441 31.7492
rtibia -1.86864
rfoot -37.5871 -47.293
rtoes 31.0006
lfemur -8.39595 -32.8304 -7.93142
ltibia 1.98529
lfoot -7.00828 10.3849
ltoes -23.5384
